<mxfile host="app.diagrams.net" modified="2024-02-29T03:05:27.101Z" agent="Mozilla/5.0 (Windows NT 10.0; Win64; x64) AppleWebKit/537.36 (KHTML, like Gecko) Chrome/122.0.0.0 Safari/537.36 Edg/122.0.0.0" version="23.1.8" etag="8LgTxPls9INA3CplDD0q" type="github">
  <diagram name="第 1 页" id="jRo5iGPRWCcUtvN2UkoJ">
    <mxGraphModel>
      <root>
        <mxCell id="0" />
        <mxCell id="1" parent="0" />
      </root>
    </mxGraphModel>
  </diagram>
</mxfile>
